<svg xmlns="http://www.w3.org/2000/svg" viewBox="-30 0 780 560" preserveAspectRatio="xMidYMid meet">
  <defs>
    <!-- Water gradient -->
    <linearGradient id="waterGrad" x1="0%" y1="0%" x2="100%" y2="100%">
      <stop offset="0%" style="stop-color:#8ec9e8;stop-opacity:1"/>
      <stop offset="100%" style="stop-color:#6ab4d8;stop-opacity:1"/>
    </linearGradient>
    <!-- Land base gradient -->
    <linearGradient id="landBase" x1="0%" y1="0%" x2="100%" y2="100%">
      <stop offset="0%" style="stop-color:#e8e0c8;stop-opacity:1"/>
      <stop offset="100%" style="stop-color:#ddd6b8;stop-opacity:1"/>
    </linearGradient>
    <!-- Surrounding territory (Ontario/US/NB) -->
    <linearGradient id="surroundGrad" x1="0%" y1="0%" x2="100%" y2="100%">
      <stop offset="0%" style="stop-color:#c8bfa0;stop-opacity:1"/>
      <stop offset="100%" style="stop-color:#baaf90;stop-opacity:1"/>
    </linearGradient>
    <filter id="shadow" x="-5%" y="-5%" width="110%" height="110%">
      <feDropShadow dx="2" dy="2" stdDeviation="3" flood-color="#333" flood-opacity="0.25"/>
    </filter>
  </defs>

  <!-- === BACKGROUND (water / ocean / gulf) === -->
  <rect width="800" height="560" fill="url(#waterGrad)"/>

  <!-- === SURROUNDING TERRITORIES === -->
  <!-- Ontario (left side & bottom-left) -->
  <path d="M0,0 L130,0 L130,90 L100,130 L80,180 L70,240 L65,310 L70,370 L80,420 L90,460 L100,490 L120,520 L150,548 L0,556 Z"
        fill="url(#surroundGrad)" stroke="#a08060" stroke-width="0.5"/>
  <!-- US States (bottom) -->
  <path d="M150,556 L120,520 L135,520 L190,530 L280,535 L380,534 L440,530 L500,526 L555,524 L590,530 L620,542 L640,556 Z"
        fill="url(#surroundGrad)" stroke="#a08060" stroke-width="0.5"/>
  <!-- Nouveau-Brunswick (right-bottom) -->
  <path d="M800,556 L640,556 L620,542 L640,500 L660,460 L680,410 L700,350 L720,290 L740,240 L760,210 L780,195 L800,165 Z"
        fill="url(#surroundGrad)" stroke="#a08060" stroke-width="0.5"/>

  <!-- === QUÉBEC TERRITORY BASE (approximate real outline of southern QC) === -->
  <!--
    The map shows southern Quebec roughly between:
    - West: Ontario border  (left ~x=120)
    - South: US border      (bottom ~y=530)
    - East: NB border / Gaspésie tip (~x=780)
    - North: Abitibi in NW (~y=40), then Lac-Saint-Jean (y~80), northern limit ~y=20
    Hotspot positions in data.js (used as % of the SVG image):
      1. Les Laurentides: x=44%, y=49% → (352, 274)
      2. Lac-Saint-Jean:  x=60%, y=22% → (480, 123)
      3. Abitibi:         x=26%, y=33% → (208, 185)
      4. Thetford Mines:  x=56%, y=76% → (448, 426)
      5. Valleyfield:     x=29%, y=88% → (232, 493)
  -->
  <!-- Main Quebec territory shape (clockwise from NW) -->
  <path d="
    M 120,40
    L 160,20
    L 220,8
    L 310,2
    L 400,0
    L 480,10
    L 560,30
    L 620,55
    L 660,80
    L 700,115
    L 730,160
    L 755,205
    L 775,250
    L 782,290
    L 775,320
    L 760,345
    L 745,360
    L 730,375
    L 720,395
    L 715,415
    L 718,440
    L 710,470
    L 695,500
    L 675,525
    L 655,542
    L 638,554
    L 620,542
    L 590,530
    L 555,524
    L 500,526
    L 440,530
    L 380,534
    L 280,535
    L 190,530
    L 135,520
    L 120,490
    L 108,455
    L 100,410
    L 96,360
    L 98,300
    L 105,240
    L 112,180
    L 115,130
    L 118,80
    Z"
    fill="url(#landBase)" stroke="#8a9a60" stroke-width="1.5" filter="url(#shadow)"/>

  <!-- === SETTLEMENT ZONES: Avant 1850 (Yellow-ochre) === -->
  <!-- This is the narrow band along both sides of the St. Lawrence River -->
  <!-- North shore of St. Lawrence (pre-1850) -->
  <path d="
    M 280,460
    L 320,445
    L 360,430
    L 400,415
    L 440,402
    L 475,392
    L 505,380
    L 535,362
    L 560,345
    L 580,330
    L 598,315
    L 598,330
    L 580,346
    L 558,362
    L 534,380
    L 502,398
    L 474,410
    L 440,422
    L 400,436
    L 360,452
    L 320,468
    Z"
    fill="#c8a840" opacity="0.85"/>
  <!-- South shore of St. Lawrence (pre-1850 - Cantons de l'Est area) -->
  <path d="
    M 205,510
    L 250,505
    L 300,502
    L 340,498
    L 380,492
    L 420,484
    L 460,478
    L 500,475
    L 540,472
    L 580,468
    L 610,462
    L 636,456
    L 660,448
    L 680,440
    L 695,428
    L 715,415
    L 718,440
    L 710,470
    L 695,500
    L 675,525
    L 655,542
    L 638,554
    L 620,542
    L 590,530
    L 555,524
    L 500,526
    L 440,530
    L 380,534
    L 310,534
    L 250,533
    L 200,530
    L 185,518
    Z"
    fill="#c8a840" opacity="0.75"/>

  <!-- === SETTLEMENT ZONES: Entre 1850-1900 (Green) === -->
  <!-- Laurentides expansion zone (north of the St. Lawrence, north shore) -->
  <path d="
    M 230,390
    L 270,375
    L 310,360
    L 350,348
    L 390,338
    L 430,328
    L 470,318
    L 500,308
    L 520,298
    L 540,288
    L 555,278
    L 565,268
    L 575,260
    L 582,250
    L 582,270
    L 575,282
    L 562,294
    L 545,306
    L 522,318
    L 500,330
    L 470,342
    L 430,354
    L 390,364
    L 350,375
    L 310,390
    L 270,406
    L 238,422
    L 225,435
    L 220,420
    L 225,405
    Z"
    fill="#5a9e45" opacity="0.75"/>
  <!-- Saguenay-Lac-Saint-Jean zone (green, from river valley going north) -->
  <path d="
    M 440,120
    L 480,100
    L 520,88
    L 555,85
    L 580,90
    L 598,100
    L 610,115
    L 605,130
    L 590,140
    L 575,148
    L 555,155
    L 530,162
    L 510,168
    L 490,172
    L 472,178
    L 458,190
    L 445,210
    L 432,230
    L 420,250
    L 415,265
    L 408,280
    L 400,300
    L 392,318
    L 388,334
    L 386,350
    L 384,366
    L 380,380
    L 375,395
    L 372,404
    L 370,415
    L 368,425
    L 368,415
    L 370,400
    L 374,385
    L 378,366
    L 382,348
    L 386,328
    L 392,310
    L 400,288
    L 408,264
    L 414,245
    L 422,225
    L 432,205
    L 446,183
    L 464,165
    L 486,155
    L 510,148
    L 535,140
    L 558,130
    L 577,118
    L 590,104
    L 590,90
    L 575,82
    L 550,78
    L 518,80
    L 482,88
    L 448,106
    L 432,124
    Z"
    fill="#5a9e45" opacity="0.7"/>
  <!-- Abitibi-Témiscamingue zone (far NW, lighter) -->
  <path d="
    M 120,40
    L 160,20
    L 210,10
    L 240,20
    L 240,60
    L 220,100
    L 200,140
    L 185,185
    L 178,230
    L 175,280
    L 172,330
    L 170,370
    L 168,410
    L 170,445
    L 175,468
    L 165,460
    L 155,445
    L 142,420
    L 130,390
    L 120,355
    L 112,310
    L 108,265
    L 108,215
    L 110,160
    L 112,110
    L 115,70
    Z"
    fill="#5a9e45" opacity="0.6"/>

  <!-- === ST. LAWRENCE RIVER === -->
  <!-- The river runs ENE from the southwest; it starts narrow and widens into Gulf -->
  <!-- Using a filled path between north and south shores -->
  <path d="
    M 135,520
    L 175,510
    L 215,503
    L 255,496
    L 295,487
    L 328,476
    L 355,464
    L 380,451
    L 408,436
    L 435,420
    L 460,406
    L 490,390
    L 515,370
    L 540,350
    L 560,332
    L 580,314
    L 600,296
    L 628,272
    L 650,252
    L 672,238
    L 700,228
    L 728,226
    L 755,232
    L 775,240
    L 782,256
    L 782,275
    L 775,255
    L 755,248
    L 728,246
    L 700,248
    L 672,258
    L 650,272
    L 628,292
    L 600,316
    L 580,334
    L 560,354
    L 540,374
    L 515,396
    L 490,416
    L 460,432
    L 435,448
    L 408,464
    L 380,480
    L 355,494
    L 325,508
    L 285,522
    L 248,530
    L 205,532
    L 175,530
    Z"
    fill="#4a9eff" opacity="0.72"/>

  <!-- === SAGUENAY RIVER (flows south into St. Lawrence near Tadoussac) === -->
  <path d="M 500,200 Q 510,240 515,270 Q 520,300 510,330 Q 500,355 492,375"
        stroke="#4a9eff" stroke-width="6" fill="none" opacity="0.65" stroke-linecap="round"/>

  <!-- === OUTAOUAIS / OTTAWA RIVER (far left, into Montreal area) === -->
  <path d="M 120,440 Q 148,440 168,445 Q 190,455 200,475 Q 205,490 205,510"
        stroke="#4a9eff" stroke-width="5" fill="none" opacity="0.55" stroke-linecap="round"/>

  <!-- === LAC-SAINT-JEAN (lake shape at hotspot 2 position ≈ x=60%, y=22% → 480,123) === -->
  <ellipse cx="484" cy="118" rx="32" ry="22"
           fill="#4a9eff" stroke="#2a7abf" stroke-width="1.5" opacity="0.88"/>
  <text x="483" y="116" text-anchor="middle" font-family="Arial,sans-serif" font-size="8.5"
        font-weight="bold" fill="white">Lac-Saint-Jean</text>

  <!-- === POLITICAL BORDERS (dashed lines) === -->
  <!-- Ontario border (left side, going north from US) -->
  <path d="M 120,490 L 110,430 L 102,360 L 98,290 L 104,220 L 112,160 L 118,100 L 120,40"
        stroke="#666" stroke-width="1.2" stroke-dasharray="6,4" fill="none"/>
  <!-- US border (bottom, roughly straight) -->
  <path d="M 120,490 L 145,516 L 195,530 L 260,534 L 360,534 L 460,530 L 540,524 L 600,524 L 640,540 L 670,548"
        stroke="#666" stroke-width="1.2" stroke-dasharray="6,4" fill="none"/>
  <!-- NB border (east, going north-south) -->
  <path d="M 670,548 L 690,510 L 705,460 L 715,410 L 718,360 L 716,310"
        stroke="#666" stroke-width="1.2" stroke-dasharray="6,4" fill="none"/>

  <!-- === NEIGHBORING TERRITORY LABELS === -->
  <text x="80" y="490" font-family="Arial,sans-serif" font-size="11" fill="#6a5a40"
        font-weight="bold" font-style="italic" text-anchor="middle">ONTARIO</text>
  <text x="430" y="553" font-family="Arial,sans-serif" font-size="10" fill="#6a5a40"
        font-weight="bold" font-style="italic" text-anchor="middle">ÉTATS-UNIS</text>
  <text x="745" y="500" font-family="Arial,sans-serif" font-size="10" fill="#6a5a40"
        font-weight="bold" font-style="italic" text-anchor="middle">NOUVEAU-</text>
  <text x="748" y="513" font-family="Arial,sans-serif" font-size="10" fill="#6a5a40"
        font-weight="bold" font-style="italic" text-anchor="middle">BRUNSWICK</text>
  <!-- Gulf of St Lawrence -->
  <text x="770" y="140" font-family="Arial,sans-serif" font-size="10" fill="#2a7abf"
        font-weight="bold" font-style="italic" text-anchor="middle">GOLFE DU</text>
  <text x="770" y="154" font-family="Arial,sans-serif" font-size="10" fill="#2a7abf"
        font-weight="bold" font-style="italic" text-anchor="middle">ST-LAURENT</text>

  <!-- === REGION LABELS (geographic area names, no circle — hotspot numbers will appear on top) === -->
  <!-- Abitibi at approx (26%, 33%) = (208, 185) — label nearby -->
  <text x="155" y="172" font-family="Arial,sans-serif" font-size="9" fill="#2d5a15"
        font-weight="bold" font-style="italic">Abitibi-</text>
  <text x="152" y="184" font-family="Arial,sans-serif" font-size="9" fill="#2d5a15"
        font-weight="bold" font-style="italic">Témiscamingue</text>
  <!-- Laurentides at (44%, 49%) = (352, 274) — label nearby -->
  <text x="315" y="298" font-family="Arial,sans-serif" font-size="9" fill="#2d5a15"
        font-weight="bold" font-style="italic">Laurentides</text>
  <!-- Gaspésie (top right) -->
  <text x="695" y="215" font-family="Arial,sans-serif" font-size="9.5" fill="#2d5a15"
        font-weight="bold" font-style="italic">Gaspésie</text>

  <!-- === MAJOR CITIES === -->
  <!-- Montréal (big dot, leftish in pre-1850 area) approx x=38%, y=87% = (304, 487) -->
  <circle cx="286" cy="495" r="6.5" fill="#c0392b" stroke="white" stroke-width="1.5"/>
  <text x="300" y="490" font-family="Arial,sans-serif" font-size="10.5" font-weight="bold" fill="#3a1a0a">Montréal</text>

  <!-- Québec City approx x=63%, y=68% = (504, 381) -->
  <circle cx="478" cy="400" r="5.5" fill="#c0392b" stroke="white" stroke-width="1.5"/>
  <text x="490" y="396" font-family="Arial,sans-serif" font-size="10" font-weight="bold" fill="#3a1a0a">Québec</text>

  <!-- Trois-Rivières -->
  <circle cx="380" cy="450" r="4" fill="#8a2a22" stroke="white" stroke-width="1"/>
  <text x="390" y="447" font-family="Arial,sans-serif" font-size="8.5" fill="#3a1a0a">Trois-Rivières</text>

  <!-- Sorel -->
  <circle cx="327" cy="472" r="3.5" fill="#8a2a22" stroke="white" stroke-width="1"/>
  <text x="310" y="466" font-family="Arial,sans-serif" font-size="8" fill="#3a1a0a">Sorel</text>

  <!-- Valleyfield (hotspot 5: 29%,88% = 232,493) -->
  <circle cx="232" cy="510" r="3.5" fill="#8a2a22" stroke="white" stroke-width="1"/>
  <text x="180" y="506" font-family="Arial,sans-serif" font-size="8.5" fill="#3a1a0a">Valleyfield</text>

  <!-- Thetford Mines (hotspot 4: 56%,76% = 448,426) -->
  <circle cx="448" cy="458" r="3.5" fill="#8a2a22" stroke="white" stroke-width="1"/>
  <text x="456" y="466" font-family="Arial,sans-serif" font-size="8.5" fill="#3a1a0a">Thetford Mines</text>

  <!-- Sherbrooke -->
  <circle cx="420" cy="500" r="3.5" fill="#8a2a22" stroke="white" stroke-width="1"/>
  <text x="427" y="498" font-family="Arial,sans-serif" font-size="8" fill="#3a1a0a">Sherbrooke</text>

  <!-- Chicoutimi -->
  <circle cx="525" cy="195" r="3.5" fill="#8a2a22" stroke="white" stroke-width="1"/>
  <text x="534" y="193" font-family="Arial,sans-serif" font-size="8.5" fill="#3a1a0a">Chicoutimi</text>

  <!-- Rivière-du-Loup -->
  <circle cx="590" cy="380" r="3" fill="#8a2a22" stroke="white" stroke-width="1"/>
  <text x="598" y="378" font-family="Arial,sans-serif" font-size="8" fill="#3a1a0a">Rivière-du-Loup</text>

  <!-- Rimouski -->
  <circle cx="632" cy="348" r="3" fill="#8a2a22" stroke="white" stroke-width="1"/>
  <text x="640" y="346" font-family="Arial,sans-serif" font-size="8" fill="#3a1a0a">Rimouski</text>

  <!-- Gaspé -->
  <circle cx="736" cy="260" r="3" fill="#8a2a22" stroke="white" stroke-width="1"/>
  <text x="742" y="258" font-family="Arial,sans-serif" font-size="8" fill="#3a1a0a">Gaspé</text>

  <!-- === LEGEND === -->
  <rect x="10" y="285" width="150" height="138" rx="6" fill="white" fill-opacity="0.88" stroke="#ccc" stroke-width="1"/>
  <text x="85" y="303" text-anchor="middle" font-family="Arial,sans-serif" font-size="9.5" font-weight="bold" fill="#333">Légende</text>
  <line x1="18" y1="308" x2="152" y2="308" stroke="#ddd" stroke-width="1"/>
  <!-- Avant 1850 -->
  <rect x="18" y="314" width="14" height="10" fill="#c8a840" opacity="0.85" rx="2"/>
  <text x="38" y="323" font-family="Arial,sans-serif" font-size="8.5" fill="#444">Av. 1850 (peuplé)</text>
  <!-- 1850-1900 -->
  <rect x="18" y="330" width="14" height="10" fill="#5a9e45" opacity="0.75" rx="2"/>
  <text x="38" y="339" font-family="Arial,sans-serif" font-size="8.5" fill="#444">1850 à 1900</text>
  <!-- St Lawrence zone indicator -->
  <rect x="18" y="346" width="14" height="10" fill="#4a9eff" opacity="0.72" rx="2"/>
  <text x="38" y="355" font-family="Arial,sans-serif" font-size="8.5" fill="#444">Fleuve St-Laurent</text>
  <!-- Major city -->
  <circle cx="25" cy="370" r="5" fill="#c0392b" stroke="white" stroke-width="1"/>
  <text x="38" y="374" font-family="Arial,sans-serif" font-size="8.5" fill="#444">+250 000 hab.</text>
  <!-- Minor city -->
  <circle cx="25" cy="386" r="3.5" fill="#8a2a22" stroke="white" stroke-width="1"/>
  <text x="38" y="390" font-family="Arial,sans-serif" font-size="8.5" fill="#444">3 000 – 100 000</text>
  <!-- Border -->
  <line x1="18" y1="404" x2="32" y2="404" stroke="#666" stroke-width="1.5" stroke-dasharray="5,4"/>
  <text x="38" y="407" font-family="Arial,sans-serif" font-size="8.5" fill="#444">Frontière</text>

  <!-- === SCALE BAR === -->
  <g transform="translate(10, 432)">
    <line x1="0" y1="8" x2="80" y2="8" stroke="#444" stroke-width="2"/>
    <line x1="0" y1="4" x2="0" y2="12" stroke="#444" stroke-width="2"/>
    <line x1="40" y1="5" x2="40" y2="11" stroke="#444" stroke-width="1.5"/>
    <line x1="80" y1="4" x2="80" y2="12" stroke="#444" stroke-width="2"/>
    <text x="40" y="22" text-anchor="middle" font-family="Arial,sans-serif" font-size="8" fill="#444">100 km</text>
  </g>

  <!-- === COMPASS ROSE === -->
  <g transform="translate(750, 360)">
    <circle r="20" fill="white" fill-opacity="0.82" stroke="#aaa" stroke-width="1"/>
    <!-- N (red) -->
    <polygon points="0,-17 4,0 0,-4 -4,0" fill="#c0392b"/>
    <!-- S (grey) -->
    <polygon points="0,17 4,0 0,4 -4,0" fill="#888"/>
    <!-- E -->
    <polygon points="17,0 0,4 4,0 0,-4" fill="#888"/>
    <!-- O/W -->
    <polygon points="-17,0 0,4 -4,0 0,-4" fill="#888"/>
    <text x="0" y="-22" text-anchor="middle" font-family="Arial,sans-serif" font-size="9" font-weight="bold" fill="#c0392b">N</text>
    <text x="0" y="30" text-anchor="middle" font-family="Arial,sans-serif" font-size="9" fill="#666">S</text>
    <text x="24" y="4" text-anchor="middle" font-family="Arial,sans-serif" font-size="9" fill="#666">E</text>
    <text x="-24" y="4" text-anchor="middle" font-family="Arial,sans-serif" font-size="9" fill="#666">O</text>
  </g>

  <!-- === TITLE === -->
  <text x="400" y="20" text-anchor="middle" font-family="Arial,sans-serif" font-size="12" font-weight="bold" fill="#2d5a15">
    Les zones de peuplement du Québec vers 1905
  </text>
</svg>